<svg id="Layer_2" data-name="Layer 2" xmlns="http://www.w3.org/2000/svg" xmlns:xlink="http://www.w3.org/1999/xlink" viewBox="0 0 512 512"><defs><style>.cls-1{fill:none;}.cls-2{fill:#fff;}.cls-3{clip-path:url(#clip-path);}.cls-4{clip-path:url(#clip-path-2);}.cls-5{fill:#1b51a1;}</style><clipPath id="clip-path"><rect class="cls-1" x="104.77" y="173.36" width="301.76" height="165.04"/></clipPath><clipPath id="clip-path-2"><path class="cls-1" d="M399.59,198.47a13.4,13.4,0,1,0-18.95-18.95L256,304.14l-10.61-10.61a13.44,13.44,0,0,0-19,19l20.16,20.12a13.36,13.36,0,0,0,18.9,0h0Zm-80.45,0a13.4,13.4,0,0,0-18.95-18.95h0L175.57,304.14,131.4,260a13.41,13.41,0,1,0-19,18.95h0l53.64,53.65a13.42,13.42,0,0,0,19,0h0Z"/></clipPath></defs><circle class="cls-2" cx="255.65" cy="255.88" r="198.3"/><g class="cls-3"><g class="cls-4"><path class="cls-5" d="M107.21,174.28V337.8H404.83V174.28Z"/></g></g></svg>