<svg xmlns="http://www.w3.org/2000/svg" xmlns:xlink="http://www.w3.org/1999/xlink" width="550" zoomAndPan="magnify" viewBox="0 0 412.5 239.999995" height="320" preserveAspectRatio="xMidYMid meet" version="1.0"><defs><g/><clipPath id="dac0519709"><path d="M 238 92 L 302 92 L 302 127 L 238 127 Z M 238 92 " clip-rule="nonzero"/></clipPath><clipPath id="64f19276e4"><path d="M 300.527344 97.328125 C 301.636719 96.214844 301.636719 94.417969 300.527344 93.304688 C 299.417969 92.195312 297.617188 92.195312 296.503906 93.304688 L 270.078125 119.734375 L 267.824219 117.476562 C 266.710938 116.367188 264.914062 116.367188 263.800781 117.476562 C 262.691406 118.589844 262.691406 120.390625 263.800781 121.5 L 268.070312 125.765625 C 269.179688 126.875 270.980469 126.875 272.089844 125.765625 Z M 283.464844 97.328125 C 284.574219 96.21875 284.574219 94.417969 283.464844 93.304688 C 282.355469 92.195312 280.554688 92.195312 279.441406 93.304688 L 253.015625 119.734375 L 243.652344 110.367188 C 242.542969 109.257812 240.742188 109.257812 239.628906 110.367188 C 238.519531 111.480469 238.519531 113.28125 239.628906 114.390625 L 251.003906 125.765625 C 251.539062 126.296875 252.261719 126.597656 253.015625 126.597656 C 253.769531 126.597656 254.492188 126.296875 255.027344 125.765625 Z M 283.464844 97.328125 " clip-rule="evenodd"/></clipPath></defs><g fill="#dfa50e" fill-opacity="1"><g transform="translate(101.712068, 152.937596)"><g><path d="M 17.765625 0.59375 C 14.648438 0.59375 11.859375 -0.0625 9.390625 -1.375 C 6.921875 -2.6875 4.976562 -4.515625 3.5625 -6.859375 C 2.144531 -9.210938 1.4375 -11.875 1.4375 -14.84375 C 1.4375 -17.800781 2.144531 -20.453125 3.5625 -22.796875 C 4.976562 -25.148438 6.921875 -26.984375 9.390625 -28.296875 C 11.859375 -29.609375 14.648438 -30.265625 17.765625 -30.265625 C 20.472656 -30.265625 22.914062 -29.785156 25.09375 -28.828125 C 27.269531 -27.867188 29.078125 -26.484375 30.515625 -24.671875 L 25.1875 -19.84375 C 23.257812 -22.15625 20.925781 -23.3125 18.1875 -23.3125 C 16.570312 -23.3125 15.132812 -22.957031 13.875 -22.25 C 12.625 -21.539062 11.648438 -20.546875 10.953125 -19.265625 C 10.265625 -17.984375 9.921875 -16.507812 9.921875 -14.84375 C 9.921875 -13.164062 10.265625 -11.6875 10.953125 -10.40625 C 11.648438 -9.125 12.625 -8.128906 13.875 -7.421875 C 15.132812 -6.710938 16.570312 -6.359375 18.1875 -6.359375 C 20.925781 -6.359375 23.257812 -7.515625 25.1875 -9.828125 L 30.515625 -5 C 29.078125 -3.195312 27.269531 -1.8125 25.09375 -0.84375 C 22.914062 0.113281 20.472656 0.59375 17.765625 0.59375 Z M 17.765625 0.59375 "/></g></g></g><g fill="#dfa50e" fill-opacity="1"><g transform="translate(133.001122, 152.937596)"><g><path d="M 17.546875 -23.359375 C 20.398438 -23.359375 22.695312 -22.507812 24.4375 -20.8125 C 26.175781 -19.113281 27.046875 -16.554688 27.046875 -13.140625 L 27.046875 0 L 18.984375 0 L 18.984375 -11.828125 C 18.984375 -14.960938 17.726562 -16.53125 15.21875 -16.53125 C 13.832031 -16.53125 12.722656 -16.078125 11.890625 -15.171875 C 11.054688 -14.265625 10.640625 -12.910156 10.640625 -11.109375 L 10.640625 0 L 2.578125 0 L 2.578125 -31.453125 L 10.640625 -31.453125 L 10.640625 -20.859375 C 11.515625 -21.671875 12.546875 -22.289062 13.734375 -22.71875 C 14.921875 -23.144531 16.191406 -23.359375 17.546875 -23.359375 Z M 17.546875 -23.359375 "/></g></g></g><g fill="#dfa50e" fill-opacity="1"><g transform="translate(162.509496, 152.937596)"><g><path d="M 12.375 -23.359375 C 16.1875 -23.359375 19.097656 -22.488281 21.109375 -20.75 C 23.117188 -19.007812 24.125 -16.347656 24.125 -12.765625 L 24.125 0 L 16.609375 0 L 16.609375 -2.96875 C 15.453125 -0.738281 13.191406 0.375 9.828125 0.375 C 8.046875 0.375 6.503906 0.0664062 5.203125 -0.546875 C 3.910156 -1.171875 2.929688 -2.007812 2.265625 -3.0625 C 1.597656 -4.125 1.265625 -5.335938 1.265625 -6.703125 C 1.265625 -8.878906 2.097656 -10.566406 3.765625 -11.765625 C 5.441406 -12.960938 8.015625 -13.5625 11.484375 -13.5625 L 16.0625 -13.5625 C 15.925781 -15.988281 14.300781 -17.203125 11.1875 -17.203125 C 10.082031 -17.203125 8.960938 -17.023438 7.828125 -16.671875 C 6.703125 -16.328125 5.742188 -15.84375 4.953125 -15.21875 L 2.25 -20.6875 C 3.519531 -21.53125 5.066406 -22.1875 6.890625 -22.65625 C 8.710938 -23.125 10.539062 -23.359375 12.375 -23.359375 Z M 12.078125 -4.703125 C 13.015625 -4.703125 13.832031 -4.925781 14.53125 -5.375 C 15.238281 -5.832031 15.75 -6.5 16.0625 -7.375 L 16.0625 -9.375 L 12.59375 -9.375 C 10.25 -9.375 9.078125 -8.59375 9.078125 -7.03125 C 9.078125 -6.332031 9.34375 -5.769531 9.875 -5.34375 C 10.414062 -4.914062 11.148438 -4.703125 12.078125 -4.703125 Z M 12.078125 -4.703125 "/></g></g></g><g fill="#dfa50e" fill-opacity="1"><g transform="translate(189.134872, 152.937596)"><g><path d="M 18.4375 -0.9375 C 17.757812 -0.507812 16.929688 -0.1875 15.953125 0.03125 C 14.984375 0.257812 13.945312 0.375 12.84375 0.375 C 9.84375 0.375 7.535156 -0.359375 5.921875 -1.828125 C 4.316406 -3.296875 3.515625 -5.484375 3.515625 -8.390625 L 3.515625 -16.109375 L 0.171875 -16.109375 L 0.171875 -22.125 L 3.515625 -22.125 L 3.515625 -28.109375 L 11.578125 -28.109375 L 11.578125 -22.125 L 16.828125 -22.125 L 16.828125 -16.109375 L 11.578125 -16.109375 L 11.578125 -8.484375 C 11.578125 -7.660156 11.796875 -7.015625 12.234375 -6.546875 C 12.671875 -6.078125 13.253906 -5.84375 13.984375 -5.84375 C 14.921875 -5.84375 15.742188 -6.085938 16.453125 -6.578125 Z M 18.4375 -0.9375 "/></g></g></g><g fill="#ff6100" fill-opacity="1"><g transform="translate(207.096854, 152.937596)"><g><path d="M 26.796875 -6.484375 L 26.796875 0 L 2.96875 0 L 2.96875 -29.671875 L 26.234375 -29.671875 L 26.234375 -23.1875 L 11.28125 -23.1875 L 11.28125 -18.1875 L 24.453125 -18.1875 L 24.453125 -11.90625 L 11.28125 -11.90625 L 11.28125 -6.484375 Z M 26.796875 -6.484375 "/></g></g></g><g fill="#ff6100" fill-opacity="1"><g transform="translate(235.587698, 152.937596)"><g><path d="M 12.375 -23.359375 C 16.1875 -23.359375 19.097656 -22.488281 21.109375 -20.75 C 23.117188 -19.007812 24.125 -16.347656 24.125 -12.765625 L 24.125 0 L 16.609375 0 L 16.609375 -2.96875 C 15.453125 -0.738281 13.191406 0.375 9.828125 0.375 C 8.046875 0.375 6.503906 0.0664062 5.203125 -0.546875 C 3.910156 -1.171875 2.929688 -2.007812 2.265625 -3.0625 C 1.597656 -4.125 1.265625 -5.335938 1.265625 -6.703125 C 1.265625 -8.878906 2.097656 -10.566406 3.765625 -11.765625 C 5.441406 -12.960938 8.015625 -13.5625 11.484375 -13.5625 L 16.0625 -13.5625 C 15.925781 -15.988281 14.300781 -17.203125 11.1875 -17.203125 C 10.082031 -17.203125 8.960938 -17.023438 7.828125 -16.671875 C 6.703125 -16.328125 5.742188 -15.84375 4.953125 -15.21875 L 2.25 -20.6875 C 3.519531 -21.53125 5.066406 -22.1875 6.890625 -22.65625 C 8.710938 -23.125 10.539062 -23.359375 12.375 -23.359375 Z M 12.078125 -4.703125 C 13.015625 -4.703125 13.832031 -4.925781 14.53125 -5.375 C 15.238281 -5.832031 15.75 -6.5 16.0625 -7.375 L 16.0625 -9.375 L 12.59375 -9.375 C 10.25 -9.375 9.078125 -8.59375 9.078125 -7.03125 C 9.078125 -6.332031 9.34375 -5.769531 9.875 -5.34375 C 10.414062 -4.914062 11.148438 -4.703125 12.078125 -4.703125 Z M 12.078125 -4.703125 "/></g></g></g><g fill="#ff6100" fill-opacity="1"><g transform="translate(262.213074, 152.937596)"><g><path d="M 10.9375 0.375 C 9.007812 0.375 7.113281 0.15625 5.25 -0.28125 C 3.382812 -0.71875 1.890625 -1.289062 0.765625 -2 L 3.171875 -7.5 C 4.222656 -6.851562 5.46875 -6.335938 6.90625 -5.953125 C 8.351562 -5.578125 9.78125 -5.390625 11.1875 -5.390625 C 12.488281 -5.390625 13.414062 -5.519531 13.96875 -5.78125 C 14.519531 -6.050781 14.796875 -6.441406 14.796875 -6.953125 C 14.796875 -7.460938 14.460938 -7.820312 13.796875 -8.03125 C 13.128906 -8.238281 12.078125 -8.441406 10.640625 -8.640625 C 8.804688 -8.867188 7.242188 -9.164062 5.953125 -9.53125 C 4.671875 -9.90625 3.5625 -10.585938 2.625 -11.578125 C 1.695312 -12.566406 1.234375 -13.953125 1.234375 -15.734375 C 1.234375 -17.203125 1.671875 -18.503906 2.546875 -19.640625 C 3.421875 -20.785156 4.695312 -21.691406 6.375 -22.359375 C 8.0625 -23.023438 10.078125 -23.359375 12.421875 -23.359375 C 14.085938 -23.359375 15.738281 -23.1875 17.375 -22.84375 C 19.019531 -22.507812 20.390625 -22.03125 21.484375 -21.40625 L 19.078125 -15.9375 C 17.046875 -17.070312 14.84375 -17.640625 12.46875 -17.640625 C 11.195312 -17.640625 10.265625 -17.488281 9.671875 -17.1875 C 9.078125 -16.894531 8.78125 -16.507812 8.78125 -16.03125 C 8.78125 -15.488281 9.101562 -15.109375 9.75 -14.890625 C 10.394531 -14.679688 11.46875 -14.46875 12.96875 -14.25 C 14.863281 -13.957031 16.429688 -13.628906 17.671875 -13.265625 C 18.921875 -12.898438 20.003906 -12.226562 20.921875 -11.25 C 21.835938 -10.28125 22.296875 -8.914062 22.296875 -7.15625 C 22.296875 -5.71875 21.859375 -4.425781 20.984375 -3.28125 C 20.109375 -2.132812 18.816406 -1.238281 17.109375 -0.59375 C 15.398438 0.0507812 13.34375 0.375 10.9375 0.375 Z M 10.9375 0.375 "/></g></g></g><g fill="#ff6100" fill-opacity="1"><g transform="translate(285.404284, 152.937596)"><g><path d="M 26.796875 -22.96875 L 16.875 0.9375 C 15.71875 3.757812 14.300781 5.742188 12.625 6.890625 C 10.957031 8.035156 8.925781 8.609375 6.53125 8.609375 C 5.3125 8.609375 4.085938 8.414062 2.859375 8.03125 C 1.628906 7.644531 0.632812 7.144531 -0.125 6.53125 L 2.671875 0.890625 C 3.117188 1.316406 3.660156 1.648438 4.296875 1.890625 C 4.929688 2.128906 5.578125 2.25 6.234375 2.25 C 6.992188 2.25 7.617188 2.09375 8.109375 1.78125 C 8.609375 1.46875 9.03125 0.972656 9.375 0.296875 L -0.46875 -22.96875 L 7.796875 -22.96875 L 13.4375 -8.9375 L 19.125 -22.96875 Z M 26.796875 -22.96875 "/></g></g></g><g fill="#448aff" fill-opacity="1"><g transform="translate(123.331139, 163.536892)"><g><path d="M 3.640625 -6.375 C 4.085938 -6.375 4.523438 -6.285156 4.953125 -6.109375 C 5.378906 -5.941406 5.742188 -5.703125 6.046875 -5.390625 L 5.421875 -4.609375 C 5.191406 -4.859375 4.921875 -5.054688 4.609375 -5.203125 C 4.296875 -5.347656 3.976562 -5.421875 3.65625 -5.421875 C 3.019531 -5.421875 2.484375 -5.203125 2.046875 -4.765625 C 1.609375 -4.335938 1.390625 -3.8125 1.390625 -3.1875 C 1.390625 -2.5625 1.609375 -2.03125 2.046875 -1.59375 C 2.484375 -1.164062 3.019531 -0.953125 3.65625 -0.953125 C 4.320312 -0.953125 4.910156 -1.203125 5.421875 -1.703125 L 6.0625 -1 C 5.738281 -0.675781 5.359375 -0.421875 4.921875 -0.234375 C 4.484375 -0.046875 4.046875 0.046875 3.609375 0.046875 C 2.679688 0.046875 1.898438 -0.257812 1.265625 -0.875 C 0.628906 -1.5 0.3125 -2.269531 0.3125 -3.1875 C 0.3125 -4.082031 0.628906 -4.835938 1.265625 -5.453125 C 1.910156 -6.066406 2.703125 -6.375 3.640625 -6.375 Z M 3.640625 -6.375 "/></g></g></g><g fill="#448aff" fill-opacity="1"><g transform="translate(131.159096, 163.536892)"><g><path d="M 2.84375 -4.859375 C 3.582031 -4.859375 4.179688 -4.628906 4.640625 -4.171875 C 5.109375 -3.722656 5.34375 -3.132812 5.34375 -2.40625 C 5.34375 -1.6875 5.109375 -1.097656 4.640625 -0.640625 C 4.179688 -0.191406 3.582031 0.03125 2.84375 0.03125 C 2.09375 0.03125 1.484375 -0.191406 1.015625 -0.640625 C 0.546875 -1.097656 0.3125 -1.6875 0.3125 -2.40625 C 0.3125 -3.132812 0.546875 -3.722656 1.015625 -4.171875 C 1.484375 -4.628906 2.09375 -4.859375 2.84375 -4.859375 Z M 2.84375 -3.953125 C 2.40625 -3.953125 2.046875 -3.804688 1.765625 -3.515625 C 1.492188 -3.234375 1.359375 -2.863281 1.359375 -2.40625 C 1.359375 -1.9375 1.492188 -1.554688 1.765625 -1.265625 C 2.046875 -0.972656 2.398438 -0.828125 2.828125 -0.828125 C 3.265625 -0.828125 3.617188 -0.972656 3.890625 -1.265625 C 4.171875 -1.554688 4.3125 -1.9375 4.3125 -2.40625 C 4.3125 -2.863281 4.171875 -3.234375 3.890625 -3.515625 C 3.617188 -3.804688 3.269531 -3.953125 2.84375 -3.953125 Z M 2.84375 -3.953125 "/></g></g></g><g fill="#448aff" fill-opacity="1"><g transform="translate(138.334842, 163.536892)"><g><path d="M 7.0625 -4.859375 C 7.613281 -4.859375 8.046875 -4.691406 8.359375 -4.359375 C 8.671875 -4.023438 8.828125 -3.570312 8.828125 -3 L 8.828125 0 L 7.78125 0 L 7.78125 -2.703125 C 7.78125 -3.078125 7.675781 -3.367188 7.46875 -3.578125 C 7.269531 -3.785156 6.992188 -3.890625 6.640625 -3.890625 C 6.234375 -3.878906 5.910156 -3.734375 5.671875 -3.453125 C 5.429688 -3.171875 5.3125 -2.816406 5.3125 -2.390625 L 5.3125 0 L 4.28125 0 L 4.28125 -2.703125 C 4.28125 -3.078125 4.175781 -3.367188 3.96875 -3.578125 C 3.769531 -3.785156 3.492188 -3.890625 3.140625 -3.890625 C 2.734375 -3.878906 2.40625 -3.734375 2.15625 -3.453125 C 1.914062 -3.171875 1.796875 -2.816406 1.796875 -2.390625 L 1.796875 0 L 0.765625 0 L 0.765625 -4.828125 L 1.796875 -4.828125 L 1.796875 -3.890625 C 2.117188 -4.535156 2.703125 -4.859375 3.546875 -4.859375 C 3.984375 -4.859375 4.34375 -4.753906 4.625 -4.546875 C 4.914062 -4.347656 5.117188 -4.066406 5.234375 -3.703125 C 5.523438 -4.472656 6.132812 -4.859375 7.0625 -4.859375 Z M 7.0625 -4.859375 "/></g></g></g><g fill="#448aff" fill-opacity="1"><g transform="translate(149.29705, 163.536892)"><g><path d="M 7.0625 -4.859375 C 7.613281 -4.859375 8.046875 -4.691406 8.359375 -4.359375 C 8.671875 -4.023438 8.828125 -3.570312 8.828125 -3 L 8.828125 0 L 7.78125 0 L 7.78125 -2.703125 C 7.78125 -3.078125 7.675781 -3.367188 7.46875 -3.578125 C 7.269531 -3.785156 6.992188 -3.890625 6.640625 -3.890625 C 6.234375 -3.878906 5.910156 -3.734375 5.671875 -3.453125 C 5.429688 -3.171875 5.3125 -2.816406 5.3125 -2.390625 L 5.3125 0 L 4.28125 0 L 4.28125 -2.703125 C 4.28125 -3.078125 4.175781 -3.367188 3.96875 -3.578125 C 3.769531 -3.785156 3.492188 -3.890625 3.140625 -3.890625 C 2.734375 -3.878906 2.40625 -3.734375 2.15625 -3.453125 C 1.914062 -3.171875 1.796875 -2.816406 1.796875 -2.390625 L 1.796875 0 L 0.765625 0 L 0.765625 -4.828125 L 1.796875 -4.828125 L 1.796875 -3.890625 C 2.117188 -4.535156 2.703125 -4.859375 3.546875 -4.859375 C 3.984375 -4.859375 4.34375 -4.753906 4.625 -4.546875 C 4.914062 -4.347656 5.117188 -4.066406 5.234375 -3.703125 C 5.523438 -4.472656 6.132812 -4.859375 7.0625 -4.859375 Z M 7.0625 -4.859375 "/></g></g></g><g fill="#448aff" fill-opacity="1"><g transform="translate(160.259256, 163.536892)"><g><path d="M 5.140625 -4.828125 L 5.140625 0 L 4.109375 0 L 4.109375 -0.9375 C 3.796875 -0.300781 3.222656 0.0195312 2.390625 0.03125 C 1.835938 0.03125 1.398438 -0.128906 1.078125 -0.453125 C 0.765625 -0.785156 0.609375 -1.242188 0.609375 -1.828125 L 0.609375 -4.828125 L 1.65625 -4.828125 L 1.65625 -2.109375 C 1.65625 -1.742188 1.753906 -1.457031 1.953125 -1.25 C 2.148438 -1.039062 2.425781 -0.9375 2.78125 -0.9375 C 3.1875 -0.945312 3.507812 -1.09375 3.75 -1.375 C 3.988281 -1.65625 4.109375 -2.015625 4.109375 -2.453125 L 4.109375 -4.828125 Z M 5.140625 -4.828125 "/></g></g></g><g fill="#448aff" fill-opacity="1"><g transform="translate(167.688637, 163.536892)"><g><path d="M 3.59375 -4.859375 C 4.15625 -4.859375 4.59375 -4.691406 4.90625 -4.359375 C 5.226562 -4.035156 5.390625 -3.582031 5.390625 -3 L 5.390625 0 L 4.34375 0 L 4.34375 -2.703125 C 4.34375 -3.066406 4.238281 -3.351562 4.03125 -3.5625 C 3.820312 -3.769531 3.539062 -3.875 3.1875 -3.875 C 2.789062 -3.875 2.46875 -3.75 2.21875 -3.5 C 1.976562 -3.257812 1.84375 -2.945312 1.8125 -2.5625 L 1.8125 0 L 0.765625 0 L 0.765625 -4.828125 L 1.8125 -4.828125 L 1.8125 -3.890625 C 2.132812 -4.535156 2.726562 -4.859375 3.59375 -4.859375 Z M 3.59375 -4.859375 "/></g></g></g><g fill="#448aff" fill-opacity="1"><g transform="translate(175.208612, 163.536892)"><g><path d="M 0.859375 -6.65625 C 0.972656 -6.769531 1.113281 -6.828125 1.28125 -6.828125 C 1.457031 -6.828125 1.601562 -6.769531 1.71875 -6.65625 C 1.832031 -6.539062 1.890625 -6.390625 1.890625 -6.203125 C 1.890625 -6.015625 1.832031 -5.863281 1.71875 -5.75 C 1.601562 -5.632812 1.457031 -5.578125 1.28125 -5.578125 C 1.113281 -5.578125 0.972656 -5.632812 0.859375 -5.75 C 0.742188 -5.863281 0.6875 -6.015625 0.6875 -6.203125 C 0.6875 -6.390625 0.742188 -6.539062 0.859375 -6.65625 Z M 1.796875 0 L 0.765625 0 L 0.765625 -4.828125 L 1.796875 -4.828125 Z M 1.796875 0 "/></g></g></g><g fill="#448aff" fill-opacity="1"><g transform="translate(179.295394, 163.536892)"><g><path d="M 2.75 -4.859375 C 3.613281 -4.859375 4.273438 -4.59375 4.734375 -4.0625 L 4.171875 -3.40625 C 3.804688 -3.769531 3.347656 -3.945312 2.796875 -3.9375 C 2.378906 -3.9375 2.035156 -3.789062 1.765625 -3.5 C 1.492188 -3.21875 1.359375 -2.847656 1.359375 -2.390625 C 1.359375 -1.941406 1.492188 -1.570312 1.765625 -1.28125 C 2.035156 -1 2.378906 -0.859375 2.796875 -0.859375 C 3.410156 -0.859375 3.882812 -1.050781 4.21875 -1.4375 L 4.796875 -0.859375 C 4.335938 -0.265625 3.65625 0.03125 2.75 0.03125 C 2.03125 0.03125 1.441406 -0.191406 0.984375 -0.640625 C 0.535156 -1.085938 0.3125 -1.675781 0.3125 -2.40625 C 0.3125 -3.132812 0.535156 -3.722656 0.984375 -4.171875 C 1.441406 -4.628906 2.03125 -4.859375 2.75 -4.859375 Z M 2.75 -4.859375 "/></g></g></g><g fill="#448aff" fill-opacity="1"><g transform="translate(185.918564, 163.536892)"><g><path d="M 3.65625 0 L 3.65625 -0.59375 C 3.3125 -0.164062 2.78125 0.046875 2.0625 0.046875 C 1.550781 0.046875 1.140625 -0.09375 0.828125 -0.375 C 0.523438 -0.65625 0.375 -1.015625 0.375 -1.453125 C 0.375 -1.890625 0.53125 -2.238281 0.84375 -2.5 C 1.164062 -2.757812 1.613281 -2.894531 2.1875 -2.90625 L 3.65625 -2.90625 L 3.65625 -3.046875 C 3.65625 -3.347656 3.554688 -3.582031 3.359375 -3.75 C 3.160156 -3.925781 2.875 -4.015625 2.5 -4.015625 C 2.03125 -4.015625 1.554688 -3.851562 1.078125 -3.53125 L 0.65625 -4.25 C 1.019531 -4.46875 1.347656 -4.625 1.640625 -4.71875 C 1.929688 -4.8125 2.296875 -4.859375 2.734375 -4.859375 C 3.347656 -4.859375 3.820312 -4.707031 4.15625 -4.40625 C 4.5 -4.101562 4.671875 -3.6875 4.671875 -3.15625 L 4.6875 0 Z M 2.28125 -0.78125 C 2.65625 -0.78125 2.96875 -0.863281 3.21875 -1.03125 C 3.476562 -1.207031 3.625 -1.425781 3.65625 -1.6875 L 3.65625 -2.140625 L 2.34375 -2.140625 C 2 -2.140625 1.742188 -2.085938 1.578125 -1.984375 C 1.421875 -1.890625 1.34375 -1.726562 1.34375 -1.5 C 1.34375 -1.28125 1.425781 -1.101562 1.59375 -0.96875 C 1.757812 -0.84375 1.988281 -0.78125 2.28125 -0.78125 Z M 2.28125 -0.78125 "/></g></g></g><g fill="#448aff" fill-opacity="1"><g transform="translate(192.741022, 163.536892)"><g><path d="M 3.234375 -1.109375 L 3.5 -0.3125 C 3.101562 -0.0703125 2.707031 0.046875 2.3125 0.046875 C 1.914062 0.046875 1.585938 -0.0664062 1.328125 -0.296875 C 1.078125 -0.535156 0.953125 -0.890625 0.953125 -1.359375 L 0.953125 -3.859375 L 0.28125 -3.859375 L 0.28125 -4.640625 L 0.953125 -4.640625 L 0.953125 -5.96875 L 2 -5.96875 L 2 -4.640625 L 3.421875 -4.640625 L 3.421875 -3.859375 L 2 -3.859375 L 2 -1.546875 C 2 -1.304688 2.039062 -1.132812 2.125 -1.03125 C 2.207031 -0.9375 2.335938 -0.890625 2.515625 -0.890625 C 2.703125 -0.890625 2.941406 -0.960938 3.234375 -1.109375 Z M 3.234375 -1.109375 "/></g></g></g><g fill="#448aff" fill-opacity="1"><g transform="translate(197.942012, 163.536892)"><g><path d="M 0.859375 -6.65625 C 0.972656 -6.769531 1.113281 -6.828125 1.28125 -6.828125 C 1.457031 -6.828125 1.601562 -6.769531 1.71875 -6.65625 C 1.832031 -6.539062 1.890625 -6.390625 1.890625 -6.203125 C 1.890625 -6.015625 1.832031 -5.863281 1.71875 -5.75 C 1.601562 -5.632812 1.457031 -5.578125 1.28125 -5.578125 C 1.113281 -5.578125 0.972656 -5.632812 0.859375 -5.75 C 0.742188 -5.863281 0.6875 -6.015625 0.6875 -6.203125 C 0.6875 -6.390625 0.742188 -6.539062 0.859375 -6.65625 Z M 1.796875 0 L 0.765625 0 L 0.765625 -4.828125 L 1.796875 -4.828125 Z M 1.796875 0 "/></g></g></g><g fill="#448aff" fill-opacity="1"><g transform="translate(202.028795, 163.536892)"><g><path d="M 2.84375 -4.859375 C 3.582031 -4.859375 4.179688 -4.628906 4.640625 -4.171875 C 5.109375 -3.722656 5.34375 -3.132812 5.34375 -2.40625 C 5.34375 -1.6875 5.109375 -1.097656 4.640625 -0.640625 C 4.179688 -0.191406 3.582031 0.03125 2.84375 0.03125 C 2.09375 0.03125 1.484375 -0.191406 1.015625 -0.640625 C 0.546875 -1.097656 0.3125 -1.6875 0.3125 -2.40625 C 0.3125 -3.132812 0.546875 -3.722656 1.015625 -4.171875 C 1.484375 -4.628906 2.09375 -4.859375 2.84375 -4.859375 Z M 2.84375 -3.953125 C 2.40625 -3.953125 2.046875 -3.804688 1.765625 -3.515625 C 1.492188 -3.234375 1.359375 -2.863281 1.359375 -2.40625 C 1.359375 -1.9375 1.492188 -1.554688 1.765625 -1.265625 C 2.046875 -0.972656 2.398438 -0.828125 2.828125 -0.828125 C 3.265625 -0.828125 3.617188 -0.972656 3.890625 -1.265625 C 4.171875 -1.554688 4.3125 -1.9375 4.3125 -2.40625 C 4.3125 -2.863281 4.171875 -3.234375 3.890625 -3.515625 C 3.617188 -3.804688 3.269531 -3.953125 2.84375 -3.953125 Z M 2.84375 -3.953125 "/></g></g></g><g fill="#448aff" fill-opacity="1"><g transform="translate(209.204543, 163.536892)"><g><path d="M 3.59375 -4.859375 C 4.15625 -4.859375 4.59375 -4.691406 4.90625 -4.359375 C 5.226562 -4.035156 5.390625 -3.582031 5.390625 -3 L 5.390625 0 L 4.34375 0 L 4.34375 -2.703125 C 4.34375 -3.066406 4.238281 -3.351562 4.03125 -3.5625 C 3.820312 -3.769531 3.539062 -3.875 3.1875 -3.875 C 2.789062 -3.875 2.46875 -3.75 2.21875 -3.5 C 1.976562 -3.257812 1.84375 -2.945312 1.8125 -2.5625 L 1.8125 0 L 0.765625 0 L 0.765625 -4.828125 L 1.8125 -4.828125 L 1.8125 -3.890625 C 2.132812 -4.535156 2.726562 -4.859375 3.59375 -4.859375 Z M 3.59375 -4.859375 "/></g></g></g><g fill="#448aff" fill-opacity="1"><g transform="translate(216.724518, 163.536892)"><g/></g></g><g fill="#448aff" fill-opacity="1"><g transform="translate(220.575781, 163.536892)"><g><path d="M 7.0625 -4.859375 C 7.613281 -4.859375 8.046875 -4.691406 8.359375 -4.359375 C 8.671875 -4.023438 8.828125 -3.570312 8.828125 -3 L 8.828125 0 L 7.78125 0 L 7.78125 -2.703125 C 7.78125 -3.078125 7.675781 -3.367188 7.46875 -3.578125 C 7.269531 -3.785156 6.992188 -3.890625 6.640625 -3.890625 C 6.234375 -3.878906 5.910156 -3.734375 5.671875 -3.453125 C 5.429688 -3.171875 5.3125 -2.816406 5.3125 -2.390625 L 5.3125 0 L 4.28125 0 L 4.28125 -2.703125 C 4.28125 -3.078125 4.175781 -3.367188 3.96875 -3.578125 C 3.769531 -3.785156 3.492188 -3.890625 3.140625 -3.890625 C 2.734375 -3.878906 2.40625 -3.734375 2.15625 -3.453125 C 1.914062 -3.171875 1.796875 -2.816406 1.796875 -2.390625 L 1.796875 0 L 0.765625 0 L 0.765625 -4.828125 L 1.796875 -4.828125 L 1.796875 -3.890625 C 2.117188 -4.535156 2.703125 -4.859375 3.546875 -4.859375 C 3.984375 -4.859375 4.34375 -4.753906 4.625 -4.546875 C 4.914062 -4.347656 5.117188 -4.066406 5.234375 -3.703125 C 5.523438 -4.472656 6.132812 -4.859375 7.0625 -4.859375 Z M 7.0625 -4.859375 "/></g></g></g><g fill="#448aff" fill-opacity="1"><g transform="translate(231.537984, 163.536892)"><g><path d="M 3.65625 0 L 3.65625 -0.59375 C 3.3125 -0.164062 2.78125 0.046875 2.0625 0.046875 C 1.550781 0.046875 1.140625 -0.09375 0.828125 -0.375 C 0.523438 -0.65625 0.375 -1.015625 0.375 -1.453125 C 0.375 -1.890625 0.53125 -2.238281 0.84375 -2.5 C 1.164062 -2.757812 1.613281 -2.894531 2.1875 -2.90625 L 3.65625 -2.90625 L 3.65625 -3.046875 C 3.65625 -3.347656 3.554688 -3.582031 3.359375 -3.75 C 3.160156 -3.925781 2.875 -4.015625 2.5 -4.015625 C 2.03125 -4.015625 1.554688 -3.851562 1.078125 -3.53125 L 0.65625 -4.25 C 1.019531 -4.46875 1.347656 -4.625 1.640625 -4.71875 C 1.929688 -4.8125 2.296875 -4.859375 2.734375 -4.859375 C 3.347656 -4.859375 3.820312 -4.707031 4.15625 -4.40625 C 4.5 -4.101562 4.671875 -3.6875 4.671875 -3.15625 L 4.6875 0 Z M 2.28125 -0.78125 C 2.65625 -0.78125 2.96875 -0.863281 3.21875 -1.03125 C 3.476562 -1.207031 3.625 -1.425781 3.65625 -1.6875 L 3.65625 -2.140625 L 2.34375 -2.140625 C 2 -2.140625 1.742188 -2.085938 1.578125 -1.984375 C 1.421875 -1.890625 1.34375 -1.726562 1.34375 -1.5 C 1.34375 -1.28125 1.425781 -1.101562 1.59375 -0.96875 C 1.757812 -0.84375 1.988281 -0.78125 2.28125 -0.78125 Z M 2.28125 -0.78125 "/></g></g></g><g fill="#448aff" fill-opacity="1"><g transform="translate(238.360436, 163.536892)"><g><path d="M 5.359375 -6.71875 L 5.359375 0 L 4.328125 0 L 4.328125 -0.828125 C 3.960938 -0.242188 3.394531 0.046875 2.625 0.046875 C 1.9375 0.046875 1.378906 -0.179688 0.953125 -0.640625 C 0.523438 -1.097656 0.3125 -1.691406 0.3125 -2.421875 C 0.3125 -3.148438 0.523438 -3.738281 0.953125 -4.1875 C 1.378906 -4.632812 1.929688 -4.859375 2.609375 -4.859375 C 3.378906 -4.859375 3.953125 -4.566406 4.328125 -3.984375 L 4.328125 -6.71875 Z M 1.78125 -1.265625 C 2.050781 -0.972656 2.40625 -0.828125 2.84375 -0.828125 C 3.28125 -0.828125 3.632812 -0.972656 3.90625 -1.265625 C 4.1875 -1.554688 4.328125 -1.929688 4.328125 -2.390625 C 4.328125 -2.859375 4.1875 -3.238281 3.90625 -3.53125 C 3.632812 -3.832031 3.28125 -3.984375 2.84375 -3.984375 C 2.40625 -3.984375 2.050781 -3.832031 1.78125 -3.53125 C 1.507812 -3.238281 1.367188 -2.859375 1.359375 -2.390625 C 1.367188 -1.929688 1.507812 -1.554688 1.78125 -1.265625 Z M 1.78125 -1.265625 "/></g></g></g><g fill="#448aff" fill-opacity="1"><g transform="translate(246.052513, 163.536892)"><g><path d="M 2.75 -4.859375 C 3.582031 -4.859375 4.179688 -4.609375 4.546875 -4.109375 C 4.921875 -3.609375 5.078125 -2.910156 5.015625 -2.015625 L 1.375 -2.015625 C 1.457031 -1.640625 1.628906 -1.34375 1.890625 -1.125 C 2.160156 -0.914062 2.484375 -0.8125 2.859375 -0.8125 C 3.398438 -0.8125 3.851562 -1 4.21875 -1.375 L 4.78125 -0.78125 C 4.28125 -0.238281 3.613281 0.03125 2.78125 0.03125 C 2.039062 0.03125 1.441406 -0.191406 0.984375 -0.640625 C 0.535156 -1.085938 0.3125 -1.671875 0.3125 -2.390625 C 0.3125 -3.117188 0.535156 -3.707031 0.984375 -4.15625 C 1.441406 -4.613281 2.03125 -4.847656 2.75 -4.859375 Z M 1.34375 -2.765625 L 4.109375 -2.765625 C 4.085938 -3.160156 3.957031 -3.46875 3.71875 -3.6875 C 3.476562 -3.914062 3.160156 -4.03125 2.765625 -4.03125 C 2.378906 -4.03125 2.0625 -3.914062 1.8125 -3.6875 C 1.5625 -3.46875 1.40625 -3.160156 1.34375 -2.765625 Z M 1.34375 -2.765625 "/></g></g></g><g fill="#448aff" fill-opacity="1"><g transform="translate(252.893093, 163.536892)"><g/></g></g><g fill="#448aff" fill-opacity="1"><g transform="translate(256.74435, 163.536892)"><g><path d="M 2.75 -4.859375 C 3.582031 -4.859375 4.179688 -4.609375 4.546875 -4.109375 C 4.921875 -3.609375 5.078125 -2.910156 5.015625 -2.015625 L 1.375 -2.015625 C 1.457031 -1.640625 1.628906 -1.34375 1.890625 -1.125 C 2.160156 -0.914062 2.484375 -0.8125 2.859375 -0.8125 C 3.398438 -0.8125 3.851562 -1 4.21875 -1.375 L 4.78125 -0.78125 C 4.28125 -0.238281 3.613281 0.03125 2.78125 0.03125 C 2.039062 0.03125 1.441406 -0.191406 0.984375 -0.640625 C 0.535156 -1.085938 0.3125 -1.671875 0.3125 -2.390625 C 0.3125 -3.117188 0.535156 -3.707031 0.984375 -4.15625 C 1.441406 -4.613281 2.03125 -4.847656 2.75 -4.859375 Z M 1.34375 -2.765625 L 4.109375 -2.765625 C 4.085938 -3.160156 3.957031 -3.46875 3.71875 -3.6875 C 3.476562 -3.914062 3.160156 -4.03125 2.765625 -4.03125 C 2.378906 -4.03125 2.0625 -3.914062 1.8125 -3.6875 C 1.5625 -3.46875 1.40625 -3.160156 1.34375 -2.765625 Z M 1.34375 -2.765625 "/></g></g></g><g fill="#448aff" fill-opacity="1"><g transform="translate(263.584929, 163.536892)"><g><path d="M 3.65625 0 L 3.65625 -0.59375 C 3.3125 -0.164062 2.78125 0.046875 2.0625 0.046875 C 1.550781 0.046875 1.140625 -0.09375 0.828125 -0.375 C 0.523438 -0.65625 0.375 -1.015625 0.375 -1.453125 C 0.375 -1.890625 0.53125 -2.238281 0.84375 -2.5 C 1.164062 -2.757812 1.613281 -2.894531 2.1875 -2.90625 L 3.65625 -2.90625 L 3.65625 -3.046875 C 3.65625 -3.347656 3.554688 -3.582031 3.359375 -3.75 C 3.160156 -3.925781 2.875 -4.015625 2.5 -4.015625 C 2.03125 -4.015625 1.554688 -3.851562 1.078125 -3.53125 L 0.65625 -4.25 C 1.019531 -4.46875 1.347656 -4.625 1.640625 -4.71875 C 1.929688 -4.8125 2.296875 -4.859375 2.734375 -4.859375 C 3.347656 -4.859375 3.820312 -4.707031 4.15625 -4.40625 C 4.5 -4.101562 4.671875 -3.6875 4.671875 -3.15625 L 4.6875 0 Z M 2.28125 -0.78125 C 2.65625 -0.78125 2.96875 -0.863281 3.21875 -1.03125 C 3.476562 -1.207031 3.625 -1.425781 3.65625 -1.6875 L 3.65625 -2.140625 L 2.34375 -2.140625 C 2 -2.140625 1.742188 -2.085938 1.578125 -1.984375 C 1.421875 -1.890625 1.34375 -1.726562 1.34375 -1.5 C 1.34375 -1.28125 1.425781 -1.101562 1.59375 -0.96875 C 1.757812 -0.84375 1.988281 -0.78125 2.28125 -0.78125 Z M 2.28125 -0.78125 "/></g></g></g><g fill="#448aff" fill-opacity="1"><g transform="translate(270.407382, 163.536892)"><g><path d="M 2.21875 -4.859375 C 2.875 -4.859375 3.429688 -4.695312 3.890625 -4.375 L 3.515625 -3.609375 C 3.054688 -3.890625 2.59375 -4.03125 2.125 -4.03125 C 1.65625 -4.03125 1.421875 -3.867188 1.421875 -3.546875 C 1.421875 -3.390625 1.507812 -3.257812 1.6875 -3.15625 C 1.863281 -3.0625 2.078125 -2.976562 2.328125 -2.90625 C 2.578125 -2.832031 2.828125 -2.75 3.078125 -2.65625 C 3.328125 -2.5625 3.539062 -2.410156 3.71875 -2.203125 C 3.894531 -1.992188 3.984375 -1.722656 3.984375 -1.390625 C 3.984375 -0.929688 3.804688 -0.578125 3.453125 -0.328125 C 3.097656 -0.0859375 2.65625 0.03125 2.125 0.03125 C 1.769531 0.03125 1.414062 -0.0234375 1.0625 -0.140625 C 0.71875 -0.253906 0.425781 -0.421875 0.1875 -0.640625 L 0.5625 -1.375 C 0.769531 -1.195312 1.019531 -1.050781 1.3125 -0.9375 C 1.613281 -0.832031 1.898438 -0.78125 2.171875 -0.78125 C 2.410156 -0.78125 2.601562 -0.820312 2.75 -0.90625 C 2.894531 -0.988281 2.96875 -1.117188 2.96875 -1.296875 C 2.96875 -1.472656 2.878906 -1.613281 2.703125 -1.71875 C 2.523438 -1.832031 2.3125 -1.921875 2.0625 -1.984375 C 1.8125 -2.054688 1.5625 -2.132812 1.3125 -2.21875 C 1.070312 -2.3125 0.863281 -2.460938 0.6875 -2.671875 C 0.519531 -2.878906 0.4375 -3.144531 0.4375 -3.46875 C 0.4375 -3.925781 0.601562 -4.269531 0.9375 -4.5 C 1.28125 -4.738281 1.707031 -4.859375 2.21875 -4.859375 Z M 2.21875 -4.859375 "/></g></g></g><g fill="#448aff" fill-opacity="1"><g transform="translate(276.179049, 163.536892)"><g><path d="M 4.859375 -4.828125 L 2.671875 0.65625 C 2.367188 1.414062 1.84375 1.796875 1.09375 1.796875 C 0.675781 1.796875 0.304688 1.660156 -0.015625 1.390625 L 0.421875 0.59375 C 0.640625 0.75 0.847656 0.828125 1.046875 0.828125 C 1.378906 0.828125 1.625 0.648438 1.78125 0.296875 L 1.953125 -0.078125 L -0.046875 -4.828125 L 1.03125 -4.828125 L 2.46875 -1.171875 L 3.8125 -4.828125 Z M 4.859375 -4.828125 "/></g></g></g><g clip-path="url(#dac0519709)"><g clip-path="url(#64f19276e4)"><path fill="#004aad" d="M 238.519531 92.195312 L 238.519531 126.875 L 301.636719 126.875 L 301.636719 92.195312 Z M 238.519531 92.195312 " fill-opacity="1" fill-rule="nonzero"/></g></g></svg>